<svg id="Layer_1" enable-background="new 0 0 512 512" viewBox="0 0 512 512" xmlns="http://www.w3.org/2000/svg"><g><g><path clip-rule="evenodd" d="m33.567 65.666h75.598 305.01v397.752h-305.01l-75.598-37.501z" fill="#f7cc38" fill-rule="evenodd"/></g><g><path clip-rule="evenodd" d="m33.567 65.666h75.598v397.752l-75.598-37.501z" fill="#ffb332" fill-rule="evenodd"/></g><g><path clip-rule="evenodd" d="m289.439 178.825c-7.203-15.417-7.262-33.334 1.458-48.424s24.257-23.989 41.222-25.477c7.203 15.447 7.292 33.364-1.429 48.454-8.72 15.089-24.257 23.988-41.251 25.447z" fill="#c56e37" fill-rule="evenodd"/></g><g><path clip-rule="evenodd" d="m259.348 230.969c-16.965-1.488-32.501-10.387-41.222-25.477s-8.661-32.977-1.429-48.424c16.965 1.488 32.501 10.358 41.222 25.447 8.721 15.12 8.632 33.007 1.429 48.454z" fill="#c56e37" fill-rule="evenodd"/></g><g><path clip-rule="evenodd" d="m259.348 230.969c9.762 13.959 25.239 22.977 42.68 22.977 17.411 0 32.888-9.018 42.68-22.977-9.792-13.959-25.269-22.977-42.68-22.977-17.441 0-32.917 9.019-42.68 22.977z" fill="#c56e37" fill-rule="evenodd"/></g><g><path clip-rule="evenodd" d="m222.204 295.287c-16.965-1.458-32.501-10.358-41.222-25.447-8.721-15.09-8.631-33.007-1.429-48.454 16.965 1.488 32.501 10.387 41.222 25.477s8.632 33.007 1.429 48.424z" fill="#c56e37" fill-rule="evenodd"/></g><g><path clip-rule="evenodd" d="m222.204 295.287c9.792 13.959 25.269 22.977 42.68 22.977 17.441 0 32.918-9.018 42.68-22.977-9.762-13.959-25.239-22.977-42.68-22.977-17.411 0-32.888 9.018-42.68 22.977z" fill="#c56e37" fill-rule="evenodd"/></g><g><path clip-rule="evenodd" d="m447.242 6.289-33.067 59.377h-305.01l33.066-59.377z" fill="#f8a845" fill-rule="evenodd"/></g><g><path clip-rule="evenodd" d="m33.567 65.666h75.598l-33.067-59.377h-75.598z" fill="#f8a845" fill-rule="evenodd"/></g><path d="m90.956 411.18c-1.284 2.586-3.886 4.083-6.59 4.083-1.098 0-2.214-.247-3.264-.769l-26.013-12.918c-3.636-1.806-5.12-6.217-3.314-9.854s6.216-5.123 9.854-3.314l26.013 12.918c3.636 1.806 5.12 6.217 3.314 9.854zm-3.315-43.547-26.013-12.916c-3.637-1.804-8.049-.322-9.854 3.315-1.806 3.637-.321 8.049 3.315 9.855l26.013 12.916c1.05.521 2.166.768 3.264.768 2.704 0 5.306-1.497 6.59-4.083 1.806-3.637.322-8.049-3.315-9.855zm-32.552-33.44 26.013 12.918c1.05.522 2.166.769 3.264.769 2.704 0 5.306-1.497 6.59-4.083 1.806-3.637.321-8.048-3.314-9.854l-26.013-12.918c-3.638-1.807-8.049-.323-9.854 3.314-1.806 3.637-.322 8.048 3.314 9.854z" fill="#f7cc38"/><path d="m215.745 104.566c0 4.06-3.291 7.352-7.351 7.352h-66.937c-4.06 0-7.351-3.291-7.351-7.352s3.291-7.352 7.351-7.352h66.937c4.06.001 7.351 3.292 7.351 7.352zm-40.804 17.857h-33.483c-4.06 0-7.351 3.291-7.351 7.352 0 4.06 3.291 7.352 7.351 7.352h33.483c4.06 0 7.351-3.291 7.351-7.352s-3.292-7.352-7.351-7.352z" fill="#f8a845"/><g><path d="m176.541 381.749c-1.247 0-2.511-.318-3.669-.986-3.516-2.03-4.721-6.525-2.691-10.042l121.016-209.62c2.029-3.516 6.527-4.72 10.042-2.691 3.516 2.03 4.721 6.525 2.691 10.042l-121.016 209.62c-1.361 2.359-3.833 3.677-6.373 3.677z" fill="#c56e37"/></g><g><path clip-rule="evenodd" d="m109.165 463.418h305.01v-397.752h-24.405v376.71h-280.605z" fill="#ffba42" fill-rule="evenodd"/></g><g><path clip-rule="evenodd" d="m261.253 373.742c-.149 2.53-.208 5.06-.208 7.619 0 68.663 56.073 124.35 125.213 124.35 69.169 0 125.242-55.686 125.242-124.35 0-2.56-.06-5.089-.238-7.619 0-.119 0-.238 0-.357-1.399-15.655-56.817-28.275-125.004-28.275-68.157 0-123.605 12.619-124.975 28.275 0 .119 0 .238-.03.357z" fill="#08a9f1" fill-rule="evenodd"/></g><g><path clip-rule="evenodd" d="m415.634 502.259c55.002-13.125 95.866-62.264 95.866-120.897 0-2.56-.06-5.089-.238-7.619 0-.119 0-.238 0-.357-.446-4.97-6.369-9.643-16.429-13.721 2.381 64.258-31.043 120.093-79.199 142.594z" fill="#0098de" fill-rule="evenodd"/></g><g><path clip-rule="evenodd" d="m386.258 402.88c68.871 0 125.034-12.977 125.034-28.9 0-15.893-56.163-28.87-125.034-28.87-68.842 0-125.004 12.977-125.004 28.87-.001 15.923 56.162 28.9 125.004 28.9z" fill="#365f7f" fill-rule="evenodd"/></g><g><path clip-rule="evenodd" d="m296.314 386.659c0 2.857.417 5.625 1.19 8.274 22.65 5.268 54.049 8.542 88.753 8.542 35.091 0 66.788-3.363 89.497-8.721 3.155-14.554.327-31.34-8.572-42.174-5.655-6.845-13.721-11.34-24.257-11.34-4.435 0-8.691.863-12.56 2.441-3.72-14.673-17.024-25.507-32.829-25.507-12.709 0-23.81 6.994-29.584 17.352-10.923-.595-21.28 4.018-28.066 12.233-1.429 1.696-2.679 3.572-3.75 5.566-20.655-3.661-39.822 12.173-39.822 33.334z" fill="#f8a845" fill-rule="evenodd"/></g><path d="m344.923 373.551c.796 3.981-1.786 7.854-5.767 8.65l-.149.03c-.487.097-.972.145-1.449.145-3.433 0-6.502-2.417-7.201-5.911-.796-3.981 1.786-7.854 5.767-8.65l.149-.03c3.983-.8 7.853 1.785 8.65 5.766zm22.248-20.471-.149.03c-3.981.794-6.566 4.664-5.773 8.646.697 3.497 3.767 5.916 7.202 5.916.476 0 .96-.046 1.445-.144l.149-.03c3.981-.794 6.566-4.664 5.773-8.646-.793-3.98-4.661-6.569-8.647-5.772zm15.001 20.209-.149.03c-3.981.794-6.566 4.664-5.773 8.646.697 3.497 3.767 5.916 7.202 5.916.476 0 .96-.046 1.445-.144l.149-.03c3.981-.794 6.566-4.664 5.773-8.646-.794-3.982-4.665-6.572-8.647-5.772zm75.731.708c-.797-3.982-4.668-6.566-8.65-5.767l-.149.03c-3.981.796-6.563 4.668-5.767 8.65.699 3.494 3.768 5.911 7.201 5.911.478 0 .963-.047 1.449-.145l.149-.03c3.981-.795 6.563-4.668 5.767-8.649z" fill="#c56e37"/><g><path clip-rule="evenodd" d="m456.915 209.54c6.905 1.845 11.042 9.018 9.197 15.923l-38.9 145.154-25.12-6.726 38.9-145.154c1.845-6.905 9.018-11.042 15.923-9.197z" fill="#08a9f1" fill-rule="evenodd"/></g></g></svg>