<svg id="Layer_1" enable-background="new 0 0 500 500" viewBox="0 0 500 500" xmlns="http://www.w3.org/2000/svg"><g clip-rule="evenodd" fill-rule="evenodd"><path d="m234.6 127.545c8.48 0 15.417 6.937 15.417 15.417v39.365c0 8.48-6.937 15.417-15.417 15.417-8.479 0-13.1-7.26-15.417-15.417l-4.245-14.939 4.245-24.426c1.452-8.355 6.938-15.417 15.417-15.417z" fill="#cf8c48"/><path d="m234.6 127.545 2.09.143c3.882 2.286 6.502 6.51 6.502 11.317v19.495c-3.053-1.582-6.514-2.477-10.176-2.477h-13.832v-13.061c-.001-8.48 6.937-15.417 15.416-15.417z" fill="#f0b16e"/><path d="m203.766 127.545c-8.479 0-15.417 6.937-15.417 15.417v39.365c0 8.48 6.938 15.417 15.417 15.417 8.48 0 15.417-6.937 15.417-15.417v-39.365c0-8.48-6.937-15.417-15.417-15.417z" fill="#cf8c48"/><path d="m202.693 127.583c-7.984.556-14.344 7.26-14.344 15.379v19.493c4.285-4.062 9.925-6.432 17.001-6.432h6.993v-14.149c0-6.444-4.006-11.996-9.65-14.291z" fill="#f0b16e"/><path d="m208.904 300.061v-38.592c0-5.052-2.037-9.401-5.918-12.635-7.265-6.053-11.761-11.577-14.627-17.803-5.795-12.589-7.286-39.796-3.103-53.228 3.02-9.703 11.932-14.953 22.842-14.768l23.751.404c9.221.157 12.273 5.515 12.103 14.953h67.733v51.43c0 4.529-1.614 8.428-4.817 11.63l-10.922 10.922c-3.203 3.203-4.817 7.102-4.817 11.63v36.057z" fill="#f0b16e"/><path d="m243.954 178.393 1.106-3.653 66.626 1.244v53.84c0 4.529-1.614 8.427-4.817 11.63l-10.922 10.922c-3.203 3.203-4.817 7.101-4.817 11.63v36.057h-14.01v-54.482c14.976-5.696 22.719-18.847 24.3-38.349l-59.432.265c11.208 15.739 11.131 28.344 7.403 39.935-3.773-19.469-10.978-34.942-33.452-40.641l-.084-14.858h17.161c9.328-.002 10.903-4.282 10.938-13.54z" fill="#cf8c48"/><path d="m311.686 182.327v-30.835c0-16.319-25.088-24.476-30.834 0l-3.732 15.896 3.732 14.939c6.19 24.782 30.834 15.998 30.834 0z" fill="#cf8c48"/><path d="m301.581 137.024c-9.974-3.691-20.729 3.756-20.729 14.468v30.835c0 3.859 1.437 7.398 3.803 10.111 1.658.613 3.448.949 5.312.949 8.48 0 15.417-6.937 15.417-15.417v-30.835c0-3.86-1.438-7.399-3.803-10.111z" fill="#f0b16e"/><path d="m265.435 127.545c-8.48 0-14.307 7.009-15.418 15.417l-2.643 19.999 2.643 19.366c1.147 8.402 6.938 15.417 15.418 15.417 8.479 0 15.417-6.937 15.417-15.417v-39.365c0-8.48-6.938-15.417-15.417-15.417z" fill="#cf8c48"/><path d="m264.428 127.579c-8.015.523-14.411 7.241-14.411 15.383v39.365c0 4.478 1.935 8.524 5.009 11.348.623.353 3.49.649 4.501.649 8.479 0 15.417-6.672 15.417-14.828v-37.861c.001-6.511-4.42-12.076-10.516-14.056z" fill="#f0b16e"/><path d="m107.923 412.588c-6.186-6.322-11.963-13.046-17.267-20.146l72.811-19.867 50.74-52.695c-1.218-2.225-2.231-4.576-3.022-7.027h-79.069l-58.095 53.226c-3.909-7.423-7.366-15.12-10.327-23.062l32.923-30.164h-41.511c-1.571-7.837-2.686-15.839-3.308-23.98h396.404c-.621 8.141-1.737 16.143-3.308 23.98h-41.512l32.923 30.164c-2.961 7.941-6.418 15.638-10.327 23.062l-58.095-53.226h-79.07c-.898 2.786-2.086 5.441-3.531 7.929l127.08 67.502c-4.711 6.657-9.819 13.013-15.293 19.03l-50.492-26.82 20.564 53.686c-6.579 4.807-13.465 9.219-20.622 13.203l-32.18-84.013-48.178-25.591c-1.355.585-2.747 1.101-4.173 1.539v57.206l46.362 67.13c-8.141 2.496-16.507 4.476-25.055 5.919l-33.295-48.213-33.297 48.212c-8.549-1.442-16.914-3.423-25.055-5.919l46.362-67.13v-57.206c-2.304-.707-4.521-1.614-6.631-2.698l-55.223 57.351z" fill="#cf8c48"/><path d="m102.025 406.3c-3.992-4.443-7.789-9.064-11.37-13.857l72.811-19.867 45.517-47.271 10.948-9.969c-1.353-2.02-2.501-4.19-3.413-6.479l-1.617-2.065h-89.682l-56.343 48.786c-1.866-4.113-3.596-8.301-5.184-12.559l32.923-30.164-9.231-6.062h-33.396c-.992-5.889-1.728-11.865-2.19-17.918h157.046l6.268-1.405c3.8-15.109 17.473-26.295 33.761-26.295 16.194 0 29.805 11.058 33.696 26.035l.536 1.665h165.097c-.621 8.141-1.737 16.143-3.308 23.98h-41.512l32.923 30.164c-.843 2.26-1.726 4.501-2.648 6.721l-46.876-42.947h-104.807c-1.085 3.326-2.656 6.432-4.631 9.233l14.761 8.539 120.261 63.721c-2.891 4.085-5.932 8.058-9.115 11.908l-60.808-33.292 4.138 13.595 20.564 53.686c-2.514 1.837-5.073 3.616-7.675 5.336l-30.093-78.563-47.153-25.047-18.418-8.465c-.595.283-1.201.549-1.814.799v68.284l46.362 67.13c-5.549 1.701-11.202 3.162-16.947 4.378l-31.012-44.904-10.394-1.771-33.297 48.212c-5.789-.976-11.494-2.2-17.103-3.664l47.937-69.411v-65.727c-5.03-.19-9.787-1.447-14.051-3.551l-63.975 58.434z" fill="#f0b16e"/><path d="m402.709 184.028c-3.44 1.414-7.374-.229-8.788-3.668-1.414-3.44.229-7.374 3.668-8.788l37.127-15.311c3.44-1.414 7.374.229 8.788 3.668 1.414 3.44-.229 7.374-3.668 8.788zm-262.756-63.907c2.638 2.638 2.638 6.916 0 9.554s-6.916 2.638-9.554 0l-28.391-28.392c-2.638-2.638-2.638-6.916 0-9.554s6.916-2.638 9.554 0zm-52.338 112.844c3.731 0 6.756 3.025 6.756 6.756s-3.025 6.756-6.756 6.756h-40.152c-3.731 0-6.756-3.025-6.756-6.756s3.025-6.756 6.756-6.756zm15.011-61.859c3.44 1.428 5.07 5.375 3.642 8.815s-5.375 5.07-8.815 3.642l-37.08-15.426c-3.439-1.428-5.07-5.375-3.642-8.815 1.428-3.439 5.375-5.07 8.815-3.642zm91.68-84.094c1.414 3.44-.229 7.374-3.668 8.788-3.44 1.414-7.374-.229-8.788-3.668l-15.311-37.127c-1.414-3.439.229-7.374 3.668-8.788 3.44-1.414 7.374.229 8.788 3.668zm124.31 5.336c-1.428 3.44-5.375 5.07-8.815 3.642s-5.07-5.375-3.642-8.815l15.426-37.08c1.428-3.439 5.375-5.07 8.815-3.642s5.07 5.375 3.642 8.815zm-61.86-15.012c0 3.731-3.025 6.756-6.756 6.756s-6.756-3.025-6.756-6.756v-40.152c0-3.731 3.025-6.756 6.756-6.756s6.756 3.025 6.756 6.756zm155.629 169.142c-3.731 0-6.756-3.025-6.756-6.756s3.025-6.756 6.756-6.756h40.152c3.731 0 6.756 3.025 6.756 6.756s-3.025 6.756-6.756 6.756zm-42.784-116.804c-2.638 2.638-6.916 2.638-9.554 0s-2.638-6.916 0-9.554l28.391-28.392c2.638-2.638 6.916-2.638 9.554 0s2.638 6.916 0 9.554z" fill="#19cfba"/></g></svg>