<svg height="512" viewBox="0 0 64 64" width="512" xmlns="http://www.w3.org/2000/svg"><g id="_20-thai_cerry" data-name="20-thai cerry"><path d="m23.71 56.03-2.49 1.99-.02-.02-1.79-1.71a1.259 1.259 0 0 1 -.36-1.28 1.353 1.353 0 0 1 .36-.62 1.424 1.424 0 0 1 .99-.39 1.455 1.455 0 0 1 .85.27z" fill="#38964d"/><path d="m63 49.62v2.15c0 3.02-.88 5.67-3.45 7.03a1.8 1.8 0 0 1 -.85.2h-1.7l-.06-.03a7.954 7.954 0 0 0 1.06-3.97v-2c4.45-.02 5-2.26 5-3.38z" fill="#d3c28e"/><path d="m63 49.62c0 1.12-.55 3.36-5 3.38v-2h-1v-1.07a3.773 3.773 0 0 0 -.55-1.95c4.49-.32 4.49-4.98 4.49-4.98l.04-.06a4 4 0 0 1 2.02 3.48z" fill="#f4e7d4"/><path d="m60.98 42.94-.04.06s0 4.66-4.49 4.98a3.685 3.685 0 0 0 -1.02-1.1l-2.53-1.81.05-.07c5.99 0 5.99-4 5.99-4l.08-.02a2.034 2.034 0 0 0 1.09 1.5l.68.35a1.858 1.858 0 0 1 .19.11z" fill="#fb919b"/><path d="m54.19 32.58 2.17 1.5a5.983 5.983 0 0 1 1.64 1.69 5.867 5.867 0 0 1 1 3.28v1.64a2.642 2.642 0 0 0 .02.29l-.08.02s0 4-5.99 4l-.05.07-1.38-.99a5.9 5.9 0 0 0 -3.39-1.09h-.13v-2.93l-2-1.01a2.227 2.227 0 0 1 -1.04-1.88 2.156 2.156 0 0 1 .25-1.01 2.369 2.369 0 0 1 3.38-.87l.95.62 1.11-2.69a2.129 2.129 0 0 1 3.17-.9z" fill="#f4e7d4"/><path d="m58 53v2a8.013 8.013 0 0 1 -8 8h-4a7.832 7.832 0 0 1 -1.95-.24 7.994 7.994 0 0 1 -6.05-7.76v-4h20z" fill="#c7874e"/><path d="m58 30.08v5.69a5.983 5.983 0 0 0 -1.64-1.69l-2.17-1.5 1.28-2.9a1.44 1.44 0 0 1 1.81-.57 1.093 1.093 0 0 1 .72.97z" fill="#49c263"/><path d="m56.45 47.98a3.773 3.773 0 0 1 .55 1.95v1.07h-18v-1.07a3.758 3.758 0 0 1 1.57-3.05l3.91-2.8a5.9 5.9 0 0 1 3.39-1.09h.26a5.9 5.9 0 0 1 3.39 1.09l1.38.99 2.53 1.81a3.685 3.685 0 0 1 1.02 1.1z" fill="#f03332"/><path d="m53 4.51a3.517 3.517 0 0 1 -.86 2.3l-12.14 14.19h-15l1.07-.92 2.06-1.78 19.06-16.44a3.511 3.511 0 0 1 5.81 2.65z" fill="#e9b789"/><path d="m42 27v6.28a8.135 8.135 0 0 1 -.7 3.29l-7.65 16.99-1.53-2.05a3.8 3.8 0 0 0 -3.03-1.51h-.1a3.736 3.736 0 0 0 -2.29.86 3.8 3.8 0 0 0 -1.32 2.18l-.39 1.96-1.28 1.03-2.46-1.76a1.455 1.455 0 0 0 -.85-.27 1.424 1.424 0 0 0 -.99.39 1.353 1.353 0 0 0 -.36.62l-.05-.01h-6l-8.3-18.43a8.135 8.135 0 0 1 -.7-3.29v-6.28z" fill="#845335"/><path d="m34.84 3.37a1.511 1.511 0 0 1 1.04 2.04c-2.23 5.54-5.62 8.27-8.12 7.45a2.544 2.544 0 0 1 -1.76-1.43c1.65.54 4.29-1.39 5.09-3.38.49-1.21.6-1.49.6-1.49a3.584 3.584 0 0 1 .08-2.51 1.748 1.748 0 0 1 2.24-.95z" fill="#f03332"/><path d="m28 18.14.13.16-2.06 1.78-.07-.08-9-9c6.76 0 9.71 3.81 11 7.14z" fill="#75e66c"/><path d="m44.05 62.76-.05.24h-5.03c-2.76 0-4.99-4.03-4.99-9h4.02v1a7.994 7.994 0 0 0 6.05 7.76z" fill="#d3c28e"/><path d="m33.65 53.56.33.44c0 4.97 2.23 9 4.99 9h-6.99c-5.99 0-2.99-13-2.99-13h.1a3.8 3.8 0 0 1 3.03 1.51z" fill="#f4e7d4"/><path d="m31.98 63h-3.99c-5 0-3-8-3-8l.39-1.96a3.8 3.8 0 0 1 1.32-2.18 3.736 3.736 0 0 1 2.29-.86s-3 13 2.99 13z" fill="#fb919b"/><path d="m23.71 56.03 1.28-1.03s-2 8 3 8h-5.29a2.7 2.7 0 0 1 -1.69-4.81l.21-.17z" fill="#f4e7d4"/><path d="m26 20 .07.08-1.07.92h-3.12c-4.88-3.42-4.88-10-4.88-10z" fill="#28be77"/><path d="m22.7 63h-7.7a2.006 2.006 0 0 1 -2-2v-6h6l.05.01a1.259 1.259 0 0 0 .36 1.28l1.79 1.71.02.02-.21.17a2.7 2.7 0 0 0 1.69 4.81z" fill="#c7874e"/><circle cx="17" cy="6" fill="#7e8596" r="2"/><circle cx="13" cy="3" fill="#7e8596" r="2"/><path d="m15 13s0 6-6 6c0 0 0-6 6-6z" fill="#58d14e"/><path d="m7 13c0-4 4-4 4-4 0 4-4 4-4 4z" fill="#58d14e"/><path d="m1 16s3-4.5 6 0c0 0-3 4.5-6 0z" fill="#58d14e"/><path d="m1 8s4 0 4 4c0 0-4 0-4-4z" fill="#58d14e"/><rect fill="#c7874e" height="6" rx="2" width="44" x="1" y="21"/><path d="m5 1v6c4.5-3 0-6 0-6z" fill="#aaf66f"/><path d="m20.25 55.27 2.327 1.665 1.133-.905-2.46-1.76a1.455 1.455 0 0 0 -.85-.27 1.424 1.424 0 0 0 -.99.39 1.353 1.353 0 0 0 -.36.62c0 .018 0 .038-.008.056a1.3 1.3 0 0 1 1.208.2z" fill="#49c263"/><path d="m57 49.93a3.773 3.773 0 0 0 -.55-1.95 3.685 3.685 0 0 0 -1.02-1.1l-2.53-1.81-1.38-.99a5.9 5.9 0 0 0 -3.39-1.09h-.26a5.9 5.9 0 0 0 -3.39 1.09l-3.91 2.8a3.758 3.758 0 0 0 -1.57 3.05v1.07h.123a3.754 3.754 0 0 1 1.447-2.12l3.91-2.8a5.9 5.9 0 0 1 3.39-1.09h.26a5.9 5.9 0 0 1 3.39 1.09l1.38.99 2.53 1.81a3.685 3.685 0 0 1 1.02 1.1 3.81 3.81 0 0 1 .425 1.02h.125z" fill="#ff5a59"/><path d="m34.932 3.409a1.464 1.464 0 0 1 -.052 1c-2.23 5.54-5.62 8.27-8.12 7.45a4.332 4.332 0 0 1 -.692-.294 2.578 2.578 0 0 0 1.692 1.295c2.5.82 5.89-1.91 8.12-7.45a1.5 1.5 0 0 0 -.948-2.001z" fill="#ca2a28"/><path d="m17 7a2 2 0 0 1 -1.929-1.5 1.966 1.966 0 0 0 -.071.5 2 2 0 0 0 4 0 1.966 1.966 0 0 0 -.071-.5 2 2 0 0 1 -1.929 1.5z" fill="#555a66"/><path d="m14.929 2.5a1.99 1.99 0 0 1 -3.858 0 1.966 1.966 0 0 0 -.071.5 2 2 0 0 0 4 0 1.966 1.966 0 0 0 -.071-.5z" fill="#555a66"/><path d="m5 1s4.5 3 0 6c0 0-4.5-3 0-6z" fill="#58d14e"/><path d="m11.277 20.584c-2.777-1.853-5.777-7.572-5.777-13.584v-.379c-.159.126-.31.253-.5.379a5.785 5.785 0 0 1 -.5-.4v.4c0 5.958 2.851 11.675 5.678 14h1.322a.5.5 0 0 0 -.223-.416z" fill="#0fa286"/><path d="m48.547 6.453-9.79 9.79a6 6 0 0 1 -4.242 1.757h-6.037l-.348.3-2.06 1.78-1.07.92h15l12.14-14.19a3.5 3.5 0 0 0 .684-1.24 3.988 3.988 0 0 0 -4.277.883z" fill="#d99c64"/><path d="m43 25h-40a2 2 0 0 1 -2-2v2a2 2 0 0 0 2 2h40a2 2 0 0 0 2-2v-2a2 2 0 0 1 -2 2z" fill="#b56e2f"/><path d="m8 33.712a3.71 3.71 0 0 1 3.71-3.712h30.29v-3h-38v6.28a8.135 8.135 0 0 0 .7 3.29l8.3 18.43h4l-8.472-18.826a6 6 0 0 1 -.528-2.462z" fill="#7a4a20"/><path d="m8 33.71a6.043 6.043 0 0 0 .141 1.29h29.859a4 4 0 0 0 4-4v-1h-30.29a3.71 3.71 0 0 0 -3.71 3.71z" fill="#7a4a20"/><path d="m4 31a4 4 0 0 0 4 4h.141a6.043 6.043 0 0 1 -.141-1.288 3.71 3.71 0 0 1 3.71-3.712h30.29v-3h-38z" fill="#5e3117"/><path d="m20.617 62h-1.617a2 2 0 0 1 -2-2v-5h-4v6a2.006 2.006 0 0 0 2 2h7.7a2.457 2.457 0 0 1 -2.083-1z" fill="#d99c64"/><path d="m28 18.14a12.742 12.742 0 0 0 -1.043-2.1l-1.913 1.913a1.989 1.989 0 0 1 -.664.424l1.62 1.623.07.08 2.06-1.78z" fill="#58d14e"/><path d="m24.38 18.38a1.962 1.962 0 0 1 -1.764-.112c-1.861-1.117-4.992-3.513-5.528-7.18l-.088-.088s0 6.58 4.88 10h3.12l1.07-.92-.07-.08z" fill="#0fa286"/><path d="m9 19c6 0 6-6 6-6z" fill="#58d14e"/><path d="m9 19 6-6c-6 0-6 6-6 6z" fill="#aaf66f"/><path d="m11 9-4 4s4 0 4-4z" fill="#58d14e"/><path d="m7 13 4-4s-4 0-4 4z" fill="#aaf66f"/><path d="m7 16h-6c3 4.5 6 0 6 0z" fill="#58d14e"/><path d="m1 16h6c-3-4.5-6 0-6 0z" fill="#aaf66f"/><path d="m1 8 4 4c0-4-4-4-4-4z" fill="#aaf66f"/><path d="m5 12-4-4c0 4 4 4 4 4z" fill="#58d14e"/><path d="m57 51h-1v4a6 6 0 0 1 -6 6h-4a6 6 0 0 1 -6-6v-4h-2v4a7.994 7.994 0 0 0 6.05 7.76 7.832 7.832 0 0 0 1.95.24h4a8.013 8.013 0 0 0 8-8v-4z" fill="#b56e2f"/><path d="m38 55v-1h-2v2a3.98 3.98 0 0 1 -1.223 2.871c.888 2.482 2.431 4.129 4.193 4.129h5.03l.05-.24a7.994 7.994 0 0 1 -6.05-7.76z" fill="#bdad7f"/><path d="m34.777 58.871a3.982 3.982 0 0 1 -2.777 1.129h-3.363c.484 1.738 1.477 3 3.343 3h6.99c-1.762 0-3.305-1.647-4.193-4.129z" fill="#f4d4a6"/><path d="m28.637 60h-3.891c.306 1.615 1.166 3 3.244 3h3.99c-1.866 0-2.859-1.262-3.343-3z" fill="#e07983"/><path d="m24.746 60h-4.712a2.5 2.5 0 0 0 -.034.3 2.7 2.7 0 0 0 2.7 2.7h5.29c-2.078 0-2.938-1.385-3.244-3z" fill="#f4d4a6"/><path d="m33.98 54a15.779 15.779 0 0 0 .138 2h1.882v-2z" fill="#e8d59c"/><path d="m29.429 52h.094a3.494 3.494 0 0 1 2.84 1.51l1.437 2.05.31.44h.011a15.779 15.779 0 0 1 -.138-2l-.33-.44-1.53-2.05a3.8 3.8 0 0 0 -3.033-1.51h-.1s-.2.863-.392 2.143a3.209 3.209 0 0 1 .831-.143z" fill="#fffdfa"/><path d="m25.68 57 .365-1.96a3.854 3.854 0 0 1 1.237-2.18 3.456 3.456 0 0 1 1.316-.717c.193-1.28.392-2.143.392-2.143a3.736 3.736 0 0 0 -2.29.86 3.8 3.8 0 0 0 -1.32 2.18l-.39 1.96a15.807 15.807 0 0 0 -.38 2.918z" fill="#ffd9dc"/><path d="m24.61 57.918a15.807 15.807 0 0 1 .38-2.918l-1.28 1.03-2.49 1.99-.21.17a2.679 2.679 0 0 0 -.976 1.81h2.135l2.311-1.97z" fill="#fffdfa"/><path d="m61 57a2 2 0 0 1 -2-2v-2.052c-.312.029-.639.05-1 .052v2a7.954 7.954 0 0 1 -1.06 3.97l.06.03h1.7a1.8 1.8 0 0 0 .85-.2 5.836 5.836 0 0 0 2.05-1.8z" fill="#bdad7f"/><path d="m59 49.141a3.987 3.987 0 0 0 -.42-1.771 4.958 4.958 0 0 1 -2.13.61 3.773 3.773 0 0 1 .55 1.95v1.07h1v2c.361 0 .688-.023 1-.052z" fill="#f4d4a6"/><path d="m57.219 45.812-1.7-1.131a9.577 9.577 0 0 1 -2.569.319l-.05.07 2.53 1.81a3.685 3.685 0 0 1 1.02 1.1 4.958 4.958 0 0 0 2.13-.61 3.992 3.992 0 0 0 -1.361-1.558z" fill="#e07983"/><path d="m55.522 44.681-4.75-3.166a1.735 1.735 0 0 1 -.772-1.443 1.732 1.732 0 0 0 -.959-1.551l-3.973-1.987a2.165 2.165 0 0 0 -.108.636 2.227 2.227 0 0 0 1.04 1.88l2 1.01v2.93h.13a5.9 5.9 0 0 1 3.39 1.09l1.38.99.05-.07a9.577 9.577 0 0 0 2.572-.319z" fill="#f4d4a6"/><path d="m62 51.867v1.9a10.944 10.944 0 0 1 -.46 3.233h.06a8.909 8.909 0 0 0 1.4-5.23v-2.15a2.923 2.923 0 0 1 -1 2.247z" fill="#e8d59c"/><path d="m60.98 42.94-.04.06a6.306 6.306 0 0 1 -.509 2.238 4 4 0 0 1 1.569 3.182v3.447a2.923 2.923 0 0 0 1-2.247v-3.2a4 4 0 0 0 -2.02-3.48z" fill="#fffdfa"/><path d="m58.065 43.142a2.028 2.028 0 0 0 1.045 1.338l.68.35a1.858 1.858 0 0 1 .19.11 3.823 3.823 0 0 1 .451.3 6.306 6.306 0 0 0 .509-2.24l.04-.06a1.858 1.858 0 0 0 -.19-.11l-.68-.35a2.034 2.034 0 0 1 -1.09-1.5l-.08.02a3.708 3.708 0 0 1 -.875 2.142z" fill="#ffd9dc"/><path d="m52.82 34.32.37.26 2.17 1.5a5.983 5.983 0 0 1 1.64 1.69 5.867 5.867 0 0 1 1 3.28v1.64a2.642 2.642 0 0 0 .02.29c.009.056.032.107.045.162a3.708 3.708 0 0 0 .875-2.142l.08-.02a2.642 2.642 0 0 1 -.02-.29v-1.64a5.867 5.867 0 0 0 -1-3.28 5.983 5.983 0 0 0 -1.64-1.69l-2.17-1.5-.37-.26a2.129 2.129 0 0 0 -3.17.9l-.559 1.355a2.141 2.141 0 0 1 2.729-.255z" fill="#fffdfa"/><path d="m54.747 31.319-.557 1.261 2.17 1.5a5.983 5.983 0 0 1 1.64 1.69v-2.032a11.135 11.135 0 0 0 -3.253-2.419z" fill="#38964d"/><path d="m34.01 3.1.83.27c.057.019.107.046.16.068v-.024l.707-.707a1 1 0 0 0 -1.414-1.414l-1 1a1 1 0 0 0 -.293.707v.033a1.989 1.989 0 0 1 1.01.067z" fill="#9f490c"/><rect fill="#d99c64" height="2" rx="1" width="21" x="5" y="21"/><rect fill="#d99c64" height="2" rx="1" width="5" x="28" y="21"/><rect fill="#d99c64" height="2" rx="1" width="10" x="41" y="51"/><rect fill="#d99c64" height="2" rx="1" width="3" x="52" y="51"/><rect fill="#965b27" height="2" rx="1" width="5" x="46" y="61"/><g fill="#f6fafd"><ellipse cx="35.684" cy="39.695" rx="1.642" ry="2.286" transform="matrix(.707 -.707 .707 .707 -17.618 36.877)"/><ellipse cx="49.682" cy="46.708" rx=".825" ry="1.148" transform="matrix(.707 -.707 .707 .707 -18.475 48.834)"/><ellipse cx="31.682" cy="37.708" rx=".825" ry="1.148" transform="matrix(.707 -.707 .707 .707 -17.386 33.464)"/><ellipse cx="49.682" cy="3.708" rx=".825" ry="1.148" transform="matrix(.707 -.707 .707 .707 11.941 36.229)"/><ellipse cx="51.427" cy="48.208" rx=".413" ry=".574" transform="matrix(.707 -.707 .707 .707 -19.025 50.509)"/></g></g></svg>